<?xml version="1.0" encoding="UTF-8"?>
<svg version="1.1" xmlns="http://www.w3.org/2000/svg" width="512" height="512">
<path d="M0 0 C1.45108658 0.00273422 1.45108658 0.00273422 2.93148804 0.00552368 C17.26440977 0.05095174 31.21023917 0.55983928 45.3125 3.3125 C46.65803955 3.55395752 46.65803955 3.55395752 48.03076172 3.80029297 C107.84088904 14.62287989 165.35495829 48.68064457 202.3125 97.3125 C202.72918945 97.85277832 203.14587891 98.39305664 203.57519531 98.94970703 C211.2584873 108.9447116 218.00092968 119.40459036 224.3125 130.3125 C224.70679199 130.98974121 225.10108398 131.66698242 225.50732422 132.36474609 C238.68961173 155.2833756 247.29510918 180.85822563 252.625 206.6875 C252.77243652 207.39817627 252.91987305 208.10885254 253.07177734 208.84106445 C256.08922991 224.65173763 256.68791194 240.44904414 256.625 256.5 C256.62284485 257.49173218 256.6206897 258.48346436 256.61846924 259.50524902 C256.568096 273.95508872 256.26723609 288.1175549 253.3125 302.3125 C253.01448486 303.77695557 253.01448486 303.77695557 252.71044922 305.27099609 C240.24495497 364.85325736 208.27570437 421.10315128 159.3125 458.3125 C158.77222168 458.72918945 158.23194336 459.14587891 157.67529297 459.57519531 C147.6802884 467.2584873 137.22040964 474.00092968 126.3125 480.3125 C125.63525879 480.70679199 124.95801758 481.10108398 124.26025391 481.50732422 C101.3416244 494.68961173 75.76677437 503.29510918 49.9375 508.625 C49.22682373 508.77243652 48.51614746 508.91987305 47.78393555 509.07177734 C32.14141634 512.05713787 16.50580394 512.6873098 0.625 512.625 C-0.34239105 512.62317719 -1.3097821 512.62135437 -2.30648804 512.61947632 C-16.63940977 512.57404826 -30.58523917 512.06516072 -44.6875 509.3125 C-45.58452637 509.15152832 -46.48155273 508.99055664 -47.40576172 508.82470703 C-107.21588904 498.00212011 -164.72995829 463.94435543 -201.6875 415.3125 C-202.10418945 414.77222168 -202.52087891 414.23194336 -202.95019531 413.67529297 C-210.6334873 403.6802884 -217.37592968 393.22040964 -223.6875 382.3125 C-224.08179199 381.63525879 -224.47608398 380.95801758 -224.88232422 380.26025391 C-238.06461173 357.3416244 -246.67010918 331.76677437 -252 305.9375 C-252.14743652 305.22682373 -252.29487305 304.51614746 -252.44677734 303.78393555 C-255.43213787 288.14141634 -256.0623098 272.50580394 -256 256.625 C-255.99817719 255.65760895 -255.99635437 254.6902179 -255.99447632 253.69351196 C-255.94904826 239.36059023 -255.44016072 225.41476083 -252.6875 211.3125 C-252.44604248 209.96696045 -252.44604248 209.96696045 -252.19970703 208.59423828 C-241.37712011 148.78411096 -207.31935543 91.27004171 -158.6875 54.3125 C-158.14722168 53.89581055 -157.60694336 53.47912109 -157.05029297 53.04980469 C-147.0552884 45.3665127 -136.59540964 38.62407032 -125.6875 32.3125 C-125.01025879 31.91820801 -124.33301758 31.52391602 -123.63525391 31.11767578 C-100.7166244 17.93538827 -75.14177437 9.32989082 -49.3125 4 C-48.60182373 3.85256348 -47.89114746 3.70512695 -47.15893555 3.55322266 C-31.51641634 0.56786213 -15.88080394 -0.0623098 0 0 Z " fill="#FE6372" transform="translate(255.6875,-0.3125)"/>
<path d="M0 0 C15.17725241 8.47262654 28.25224234 20.50535967 38.58203125 34.44140625 C42.94144401 33.81162242 46.34109701 32.2116408 50.26953125 30.25390625 C87.7216026 12.21710083 131.68526881 10.58226373 170.875 23.85546875 C180.04321032 27.11649685 188.83573937 31.19392542 197.58203125 35.44140625 C198.38125 34.48621094 199.18046875 33.53101563 200.00390625 32.546875 C228.15330101 -0.75164112 228.15330101 -0.75164112 247.671875 -2.8984375 C256.64244304 -3.31973566 261.34737409 -1.31327287 268.02944756 4.61141968 C270.85499082 7.3174866 273.62897244 10.0707746 276.38842773 12.84375 C277.45140233 13.90101322 278.5150033 14.95764699 279.57917786 16.01370239 C282.44942183 18.86609427 285.31012633 21.72787166 288.16859317 24.59206009 C290.55922038 26.98578767 292.95443801 29.37489561 295.34962803 31.76405621 C300.99765325 37.39806682 306.63787932 43.0398008 312.27319336 48.68652344 C318.08511303 54.50994896 323.90974507 60.32043227 329.74077934 66.12471294 C334.75369249 71.11548639 339.75882935 76.11396387 344.75774628 81.11875629 C347.74068583 84.1050674 350.72645316 87.08840305 353.71966362 90.06442261 C356.53007831 92.85939564 359.33065243 95.66386706 362.12391472 98.47597885 C363.15043154 99.50618781 364.18037346 100.53299691 365.2139473 101.55612564 C366.62370382 102.9527169 368.01998027 104.36287636 369.41551208 105.77368164 C370.59318728 106.95167076 370.59318728 106.95167076 371.79465389 108.15345764 C374.60419848 111.74984069 374.70108747 115.34451049 374.74316406 119.77490234 C374.75262054 120.60204742 374.76207703 121.4291925 374.77182007 122.28140259 C374.77622101 123.16693817 374.78062195 124.05247375 374.78515625 124.96484375 C374.79221588 125.89461029 374.79927551 126.82437683 374.80654907 127.78231812 C375.03552148 166.85037994 375.03552148 166.85037994 371.58203125 183.44140625 C371.38335449 184.41770996 371.18467773 185.39401367 370.97998047 186.39990234 C358.51448622 245.98216361 326.54523562 302.23205753 277.58203125 339.44140625 C277.04175293 339.8580957 276.50147461 340.27478516 275.94482422 340.70410156 C265.94981965 348.38739355 255.48994089 355.12983593 244.58203125 361.44140625 C243.90479004 361.83569824 243.22754883 362.22999023 242.52978516 362.63623047 C221.90757441 374.49766883 188.05598994 392.15369305 163.58203125 389.44140625 C161.26064274 387.69676684 159.42988391 386.07558655 157.43167114 384.01257324 C156.84259661 383.42862525 156.25352207 382.84467727 155.64659679 382.24303389 C153.67449743 380.28082496 151.72462015 378.29792583 149.77392578 376.31445312 C148.3654805 374.9043156 146.95571308 373.49549758 145.54472351 372.08790588 C141.71553339 368.26043971 137.90514457 364.41473434 134.09780741 360.56554604 C130.11668848 356.5469607 126.11861153 352.54532099 122.12228394 348.54187012 C114.55617654 340.95710201 107.00549556 333.35716676 99.46020591 325.75169516 C90.86988999 317.09435276 82.26256372 308.45400843 73.6537497 299.81506634 C55.94415281 282.04272656 38.25607931 264.24909364 20.58203125 246.44140625 C23.9532595 246.44140625 24.71319734 246.95634025 27.43359375 248.78515625 C28.19317383 249.28571533 28.95275391 249.78627441 29.73535156 250.30200195 C30.55100586 250.84300537 31.36666016 251.38400879 32.20703125 251.94140625 C44.65222246 259.94979027 56.94055722 265.84786109 71.08203125 270.25390625 C71.97051758 270.53210205 72.85900391 270.81029785 73.77441406 271.09692383 C87.65610724 275.19674379 101.25489899 276.95023287 115.68383789 276.83251953 C118.01573331 276.81643245 120.34589057 276.83248711 122.67773438 276.8515625 C136.92196741 276.87238222 150.95952955 275.03423731 164.58203125 270.75390625 C165.40469482 270.49971924 166.2273584 270.24553223 167.07495117 269.98364258 C193.66851703 261.47726598 216.87737444 246.20418064 235.58203125 225.44140625 C235.91203125 224.78140625 236.24203125 224.12140625 236.58203125 223.44140625 C235.57849609 223.23837891 235.57849609 223.23837891 234.5546875 223.03125 C209.03998789 217.31184754 187.33016274 203.25777819 168.58203125 185.44140625 C168.07671875 184.9633252 167.57140625 184.48524414 167.05078125 183.99267578 C156.64320514 174.08233663 148.20611105 163.54047785 140.39453125 151.50390625 C135.91515441 144.62554348 131.6969313 139.15437579 123.58203125 136.44140625 C117.36630821 135.7447386 111.86439622 135.79405901 106.58203125 139.44140625 C100.3062431 144.72628048 95.87580903 152.0922776 91.265625 158.8125 C85.71650079 166.8394146 79.6946312 174.06239141 72.90283203 181.06933594 C71.79594622 182.21918774 70.7149931 183.39392703 69.640625 184.57421875 C52.52477759 202.87707123 27.146908 218.11008824 2.58203125 223.44140625 C1.26203125 223.44140625 -0.05796875 223.44140625 -1.41796875 223.44140625 C-3.3785637 221.2029317 -4.975494 219.09475809 -6.60546875 216.62890625 C-7.0837915 215.91621582 -7.56211426 215.20352539 -8.05493164 214.46923828 C-16.13596621 202.07501348 -22.01350202 188.83301563 -25.41796875 174.44140625 C-25.71445313 173.45527344 -26.0109375 172.46914063 -26.31640625 171.453125 C-28.59041387 163.07684924 -28.70126004 154.8963128 -28.73046875 146.25390625 C-28.73594727 145.06587402 -28.74142578 143.8778418 -28.74707031 142.65380859 C-28.69470646 136.17242764 -28.13195485 130.13078294 -26.86499023 123.77856445 C-25.69754719 117.67483299 -26.62887786 114.44227711 -29.66796875 109.06640625 C-33.74505454 101.47384785 -35.62974682 93.82256761 -37.41796875 85.44140625 C-37.63195312 84.57515625 -37.8459375 83.70890625 -38.06640625 82.81640625 C-40.60973673 72.49564489 -40.62933938 61.85404315 -40.65820312 51.28149414 C-40.66790778 49.14234485 -40.69904645 47.00415993 -40.73046875 44.86523438 C-40.82294744 33.02890002 -39.59145344 21.56081208 -34.10546875 10.87890625 C-33.27595703 9.20634766 -33.27595703 9.20634766 -32.4296875 7.5 C-24.93006103 -3.90234471 -12.04093308 -5.58279127 0 0 Z " fill="#515F68" transform="translate(137.41796875,118.55859375)"/>
<path d="M0 0 C5.9373332 4.93051719 11.4032881 10.24262745 16.86669922 15.68969727 C17.84128707 16.65800714 18.81605931 17.62613145 19.79100037 18.59408569 C22.96575876 21.74798831 26.13534813 24.90705973 29.3046875 28.06640625 C30.40016644 29.15783297 31.49567774 30.24922722 32.59122086 31.34058952 C37.73182738 36.46219797 42.87005701 41.58617628 48.00535285 46.71310955 C53.92503851 52.62299349 59.85293959 58.52447638 65.78783214 64.41908795 C70.38435375 68.98548068 74.97320189 73.55949345 79.55634129 78.13931698 C82.29064503 80.87126989 85.02815748 83.59981448 87.77383041 86.32034492 C90.35174744 88.8750278 92.92003075 91.4390125 95.48120308 94.01047897 C96.87099567 95.40100457 98.27070383 96.78159761 99.67066956 98.16188049 C100.49492935 98.99308411 101.31918915 99.82428772 102.16842651 100.68067932 C102.88847303 101.39833749 103.60851955 102.11599566 104.35038567 102.85540104 C107.04714344 106.36135016 107.12033104 110.03733429 107.16113281 114.33349609 C107.17058929 115.16064117 107.18004578 115.98778625 107.18978882 116.83999634 C107.19418976 117.72553192 107.1985907 118.6110675 107.203125 119.5234375 C107.21018463 120.45320404 107.21724426 121.38297058 107.22451782 122.34091187 C107.45349023 161.40897369 107.45349023 161.40897369 104 178 C103.80132324 178.97630371 103.60264648 179.95260742 103.39794922 180.95849609 C90.93245497 240.54075736 58.96320437 296.79065128 10 334 C9.45972168 334.41668945 8.91944336 334.83337891 8.36279297 335.26269531 C-1.6322116 342.9459873 -12.09209036 349.68842968 -23 356 C-23.67724121 356.39429199 -24.35448242 356.78858398 -25.05224609 357.19482422 C-45.67445684 369.05626258 -79.52604131 386.7122868 -104 384 C-106.32138851 382.25536059 -108.15214734 380.6341803 -110.15036011 378.57116699 C-110.73943464 377.987219 -111.32850918 377.40327102 -111.93543446 376.80162764 C-113.90753382 374.83941871 -115.8574111 372.85651958 -117.80810547 370.87304688 C-119.21655075 369.46290935 -120.62631817 368.05409133 -122.03730774 366.64649963 C-125.86649786 362.81903346 -129.67688668 358.97332809 -133.48422384 355.12413979 C-137.46534277 351.10555445 -141.46341972 347.10391474 -145.45974731 343.10046387 C-153.02585471 335.51569576 -160.57653569 327.91576051 -168.12182534 320.31028891 C-176.71214126 311.65294651 -185.31946753 303.01260218 -193.92828155 294.37366009 C-211.63787844 276.60132031 -229.32595194 258.80768739 -247 241 C-243.62877175 241 -242.86883391 241.514934 -240.1484375 243.34375 C-239.38885742 243.84430908 -238.62927734 244.34486816 -237.84667969 244.8605957 C-237.03102539 245.40159912 -236.21537109 245.94260254 -235.375 246.5 C-222.92980879 254.50838402 -210.64147403 260.40645484 -196.5 264.8125 C-195.16727051 265.2297937 -195.16727051 265.2297937 -193.80761719 265.65551758 C-179.92592401 269.75533754 -166.32713226 271.50882662 -151.89819336 271.39111328 C-149.56629794 271.3750262 -147.23614068 271.39108086 -144.90429688 271.41015625 C-130.66006384 271.43097597 -116.6225017 269.59283106 -103 265.3125 C-102.17733643 265.05831299 -101.35467285 264.80412598 -100.50708008 264.54223633 C-76.56539018 256.8841046 -57.21426282 244.11424414 -39 227 C-38.3503125 226.41605469 -37.700625 225.83210937 -37.03125 225.23046875 C-22.52764445 211.71885509 -11.81422037 191.03834262 -7 172 C-6.612677 170.52406372 -6.612677 170.52406372 -6.2175293 169.01831055 C-4.14452795 160.4135494 -3.55928981 152.35039942 -3.66381836 143.55883789 C-3.68752429 141.43532408 -3.68433325 139.31306726 -3.67773438 137.18945312 C-3.69687878 129.57009222 -4.2176601 122.32140354 -5.82373047 114.83959961 C-6.10991055 110.22940505 -3.97459962 107.05695369 -1.7265625 103.15625 C11.6693222 78.6678454 13.78621863 39.8945399 6.22265625 13.21875 C4.61819917 8.99487578 2.6707178 5.63514367 0 2 C0 1.34 0 0.68 0 0 Z " fill="#C23442" transform="translate(405,124)"/>
<path d="M0 0 C9.35104758 7.02805049 13.03891046 19.0390943 15.16552734 30.07592773 C15.88439079 35.48420355 15.81898005 40.89945306 15.76831055 46.34741211 C15.75012376 48.3612961 15.7478013 50.37471436 15.74804688 52.38867188 C15.6585054 72.63499456 13.91553505 98.10743697 1.90820312 115.45214844 C0.19710672 118.77127811 0.56877539 120.26205952 1.34765625 123.875 C2.75850765 131.61129541 3.00350551 139.22474895 3 147.0625 C3.00110275 148.14300125 3.00110275 148.14300125 3.00222778 149.24533081 C2.95204509 168.05396043 -1.06718465 184.26581808 -9.4375 201.0625 C-10.18 202.56876953 -10.18 202.56876953 -10.9375 204.10546875 C-20.15227746 221.85893945 -20.15227746 221.85893945 -25.32275391 223.75317383 C-28.97150813 224.28688101 -32.27592792 222.80459808 -35.6875 221.625 C-36.48236816 221.35421631 -37.27723633 221.08343262 -38.09619141 220.80444336 C-45.60955405 218.15499443 -52.66107713 214.81618051 -59.65917969 211.02539062 C-61.27613828 210.14987104 -62.90693156 209.30002418 -64.5390625 208.453125 C-87.21263289 196.10794651 -106.38717066 175.57054607 -120.32446289 154.12255859 C-127.15099278 143.63735726 -130.72713867 139.8756084 -143.4375 136.0625 C-143.4375 96.7925 -143.4375 57.5225 -143.4375 17.0625 C-130.27499383 17.0625 -119.82977944 17.10219333 -107.4375 20.0625 C-106.24253906 20.32933594 -105.04757812 20.59617188 -103.81640625 20.87109375 C-90.11492756 24.18953584 -76.95600361 29.62359114 -64.4375 36.0625 C-63.63828125 35.10730469 -62.8390625 34.15210938 -62.015625 33.16796875 C-49.21788476 18.02925037 -23.10730864 -12.81768176 0 0 Z " fill="#3F505C" transform="translate(399.4375,117.9375)"/>
<path d="M0 0 C8.63103185 3.77500399 13.63655151 12.0635485 18.58984375 19.671875 C40.69956831 53.59996008 72.54452505 75.3183756 110.77734375 87.421875 C109.47505704 90.28908142 108.08980928 92.36526654 105.87109375 94.59375 C105.29738037 95.1717334 104.72366699 95.7497168 104.13256836 96.34521484 C103.52034424 96.9480127 102.90812012 97.55081055 102.27734375 98.171875 C101.32903687 99.10894287 101.32903687 99.10894287 100.36157227 100.06494141 C71.68267336 128.09246068 32.43912783 141.90547819 -7.22265625 141.796875 C-8.04035492 141.7956665 -8.85805359 141.79445801 -9.70053101 141.79321289 C-22.59178634 141.74158554 -34.77215303 141.0191699 -47.22265625 137.421875 C-48.17350098 137.15342773 -49.1243457 136.88498047 -50.10400391 136.60839844 C-76.84768203 128.86195374 -108.89823269 113.35618022 -125.22265625 89.421875 C-125.22265625 88.761875 -125.22265625 88.101875 -125.22265625 87.421875 C-123.91167969 87.0196875 -123.91167969 87.0196875 -122.57421875 86.609375 C-96.41508882 78.27355162 -75.33031095 65.09565051 -55.22265625 46.421875 C-54.57941406 45.844375 -53.93617188 45.266875 -53.2734375 44.671875 C-43.29614584 35.30116921 -35.26879056 23.41584831 -27.90625 11.9375 C-21.18594631 1.89602535 -12.25845174 -3.18849008 0 0 Z " fill="#EAEAEF" transform="translate(263.22265625,254.578125)"/>
<path d="M0 0 C0 9.57 0 19.14 0 29 C-8.9375 29.4375 -8.9375 29.4375 -11.75756836 29.56811523 C-12.48596924 29.60622314 -13.21437012 29.64433105 -13.96484375 29.68359375 C-15.08814087 29.73858032 -15.08814087 29.73858032 -16.23413086 29.79467773 C-18.02461326 29.81771063 -18.02461326 29.81771063 -19 31 C-19.56874015 35.05819797 -19.25192923 36.63924104 -16.875 40.04296875 C-15.9312807 41.10432253 -14.97234064 42.15230357 -14 43.1875 C-12.56328119 44.7597965 -11.147102 46.34033344 -9.76489258 47.96090698 C-8.53698856 49.37958285 -7.26392696 50.75989507 -5.95849609 52.10757446 C1.60744053 60.83909958 0.97003523 68.87602838 0.5625 79.79296875 C0.52507256 81.59321641 0.4912785 83.39354292 0.4609375 85.19392395 C0.37200898 89.89864285 0.23423642 94.60066736 0.08575439 99.30383301 C-0.05736787 104.11661201 -0.15357711 108.9303131 -0.25390625 113.74414062 C-0.45707126 123.16423403 -0.71192462 132.5821472 -1 142 C-3.88527637 142.01608693 -6.77046204 142.02783799 -9.65576172 142.03710938 C-10.4681279 142.04208435 -11.28049408 142.04705933 -12.11747742 142.05218506 C-17.92059813 142.06616361 -23.43519118 141.70377626 -29.125 140.5 C-29.98206543 140.32549316 -30.83913086 140.15098633 -31.72216797 139.97119141 C-62.32089286 133.34082574 -99.54901403 117.05219748 -118 90 C-118 89.34 -118 88.68 -118 88 C-116.68902344 87.5978125 -116.68902344 87.5978125 -115.3515625 87.1875 C-89.19243257 78.85167662 -68.1076547 65.67377551 -48 47 C-47.35675781 46.4225 -46.71351563 45.845 -46.05078125 45.25 C-36.07348959 35.87929421 -28.04613431 23.99397331 -20.68359375 12.515625 C-15.32172409 4.50392184 -9.93472289 0 0 0 Z " fill="#EAEAEF" transform="translate(256,254)"/>
<path d="M0 0 C2.01991436 2.01991436 2.86357724 3.59333334 4.125 6.125 C10.14897381 17.08088219 20.18513798 23.52361056 32 27 C43.81461454 29.32072786 55.44876836 27.81245489 65.84375 21.50390625 C73.16593385 16.39694831 78.46644362 10.68037788 83 3 C87.83589687 4.53111468 92.45860087 6.40389866 97.125 8.375 C103.99655465 11.24668332 110.88302917 13.79223063 118 16 C116.69771329 18.86720642 115.31246553 20.94339154 113.09375 23.171875 C112.52003662 23.7498584 111.94632324 24.3278418 111.35522461 24.92333984 C110.74300049 25.5261377 110.13077637 26.12893555 109.5 26.75 C108.55169312 27.68706787 108.55169312 27.68706787 107.58422852 28.64306641 C78.55160736 57.01627388 39.97592239 70 0 70 C0 46.9 0 23.8 0 0 Z " fill="#D1D1D6" transform="translate(256,326)"/>
<path d="M0 0 C0 9.57 0 19.14 0 29 C-8.9375 29.4375 -8.9375 29.4375 -11.75756836 29.56811523 C-12.48596924 29.60622314 -13.21437012 29.64433105 -13.96484375 29.68359375 C-15.08814087 29.73858032 -15.08814087 29.73858032 -16.23413086 29.79467773 C-18.02461326 29.81771063 -18.02461326 29.81771063 -19 31 C-19.56874015 35.05819797 -19.25192923 36.63924104 -16.875 40.04296875 C-15.92925805 41.10252061 -14.97015615 42.15025605 -14 43.1875 C-12.99111109 44.32993519 -11.98462814 45.47449926 -10.98046875 46.62109375 C-10.47821777 47.18812012 -9.9759668 47.75514648 -9.45849609 48.33935547 C0.40055071 59.5648721 0.40055071 59.5648721 0.875 65.4375 C-0.05464573 74.83537322 -6.3676455 83.98896299 -13.30078125 89.9921875 C-24.79757973 99.07648847 -36.76569638 101.20730743 -51 100 C-62.9327557 98.04619291 -73.39130262 90.7563804 -80.41796875 81.0390625 C-81.5625 79.1875 -81.5625 79.1875 -83 76 C-81.65411801 71.96235404 -79.03639357 70.90225001 -75.5625 68.8125 C-65.48750202 62.53929151 -56.68935762 55.06971852 -48 47 C-47.35675781 46.4225 -46.71351563 45.845 -46.05078125 45.25 C-36.07348959 35.87929421 -28.04613431 23.99397331 -20.68359375 12.515625 C-15.32172409 4.50392184 -9.93472289 0 0 0 Z " fill="#FEFEFE" transform="translate(256,254)"/>
<path d="M0 0 C8.8353466 5.3622416 15.39143192 12.42265431 18.375 22.44140625 C19.74858676 32.4575608 18.77457403 41.65565868 13.375 50.44140625 C7.27668684 58.3471086 -0.76330048 63.00251059 -10.625 64.44140625 C-18.29666446 65.19263749 -23.91667027 64.23708201 -30.625 60.44140625 C-32.171875 59.57515625 -32.171875 59.57515625 -33.75 58.69140625 C-40.62746975 53.30903862 -45.67646378 47.07877735 -47.625 38.44140625 C-49.02389586 26.690681 -47.34340896 17.9824711 -40.01953125 8.32421875 C-30.16676529 -2.58169322 -13.37713139 -6.31453406 0 0 Z " fill="#FACF3C" transform="translate(329.625,217.55859375)"/>
<path d="M0 0 C5.52989196 3.0669989 10.10077917 6.33250557 13.5625 11.6875 C14.29533203 12.79931641 14.29533203 12.79931641 15.04296875 13.93359375 C19.84674834 22.28738055 19.75317438 32.50653838 17.53515625 41.75 C13.9473357 51.22087984 7.57162371 58.05504884 -1.625 62.25 C-11.58407822 65.4950929 -20.25404797 65.15612506 -29.79296875 60.796875 C-37.92880797 56.35302351 -43.32605196 50.03784453 -46.734375 41.45703125 C-49.03842225 33.16044005 -48.79677562 23.43071184 -45.07421875 15.59375 C-35.48200552 0.0807367 -17.26051339 -8.51232772 0 0 Z " fill="#FACF3C" transform="translate(209.625,216.75)"/>
<path d="M0 0 C5.75033844 3.97016685 7.60483003 10.47557879 9 17 C9.39597364 20.88657106 9.42890773 24.7209451 9.375 28.625 C9.36702393 29.67171875 9.35904785 30.7184375 9.35083008 31.796875 C9.14160758 43.29440155 7.64658119 54.37924299 3 65 C2.34 65 1.68 65 1 65 C-0.48185643 62.67005631 -1.87218708 60.32796852 -3.25 57.9375 C-11.23029427 44.65236866 -22.36082416 34.09520354 -34 24 C-29.24693405 12.74839189 -12.92281862 -2.83965102 0 0 Z " fill="#F1856D" transform="translate(386,143)"/>
<path d="M0 0 C7.49663421 3.66336941 13.46668328 8.82822366 19 15 C19.52851563 15.58394531 20.05703125 16.16789062 20.6015625 16.76953125 C24 20.67108939 24 20.67108939 24 23 C22.56932405 24.24549452 21.07749658 25.42106422 19.5625 26.5625 C6.36367836 36.92106888 -3.36371303 49.73010861 -12 64 C-20.97421287 50.53868069 -20.89051157 28.31065406 -18.50390625 12.76953125 C-17.08227078 7.46048578 -14.8781883 3.8781883 -11 0 C-7.39804592 -1.80097704 -3.74582948 -0.98369706 0 0 Z " fill="#FCB29A" transform="translate(136,144)"/>
<path d="M0 0 C4.93015153 2.85483107 8.23746224 6.93288932 11.0625 11.8125 C12.5926834 18.23927029 12.29391558 23.77171381 9.0234375 29.58203125 C5.55606601 34.39782498 1.31234985 37.57658411 -4.3125 39.4375 C-10.92028949 40.37582586 -16.13370548 39.8904575 -21.59375 35.9296875 C-26.21141588 31.92071394 -29.78688051 27.64245591 -30.56640625 21.40625 C-30.87559114 15.58160564 -29.77459881 11.16551859 -26.3125 6.4375 C-19.01293282 -1.15581233 -10.25660447 -4.63329236 0 0 Z " fill="#3A3E41" transform="translate(324.3125,229.5625)"/>
<path d="M0 0 C2.44629443 1.77965022 4.01572424 3.65944256 5.6484375 6.19921875 C6.2259375 7.08609375 6.8034375 7.97296875 7.3984375 8.88671875 C9.62388219 14.78414717 9.66758952 20.64050172 7.0859375 26.44921875 C4.25109247 31.41522387 0.19625923 34.68429772 -4.6640625 37.57421875 C-11.40564845 39.14202944 -17.52211608 38.94224064 -23.59765625 35.46875 C-27.98304973 32.29446742 -30.66285491 28.33940763 -32.3515625 23.19921875 C-32.97046233 17.44920754 -33.2053452 12.07754069 -30.7890625 6.76171875 C-22.18105276 -2.28772738 -11.99109806 -6.97441418 0 0 Z " fill="#3A3E41" transform="translate(207.3515625,229.80078125)"/>
<path d="M0 0 C0.74584854 0.00091141 1.49169708 0.00182281 2.26014709 0.00276184 C3.02706375 -0.00152328 3.79398041 -0.00580841 4.58413696 -0.01022339 C6.20733146 -0.01597014 7.83055172 -0.0164644 9.45375061 -0.01213074 C11.93849128 -0.00897351 14.42203836 -0.03241445 16.90663147 -0.05778503 C18.48280184 -0.06005827 20.05897542 -0.06076141 21.63514709 -0.05973816 C22.75088356 -0.07355278 22.75088356 -0.07355278 23.88916016 -0.08764648 C29.01621128 -0.0416331 29.01621128 -0.0416331 31.5059967 1.68464661 C32.51405334 3.30354309 32.51405334 3.30354309 32.52186584 5.56916809 C31.15384521 9.28085199 28.88087578 12.04329332 26.38905334 15.05354309 C25.3901736 16.29037543 24.39147591 17.52735483 23.39295959 18.76448059 C22.90327698 19.36486145 22.41359436 19.96524231 21.90907288 20.58381653 C20.01277969 22.92149403 18.16744199 25.29710603 16.32655334 27.67854309 C15.77612366 28.38752747 15.22569397 29.09651184 14.65858459 29.82698059 C14.28088928 30.31424622 13.90319397 30.80151184 13.51405334 31.30354309 C10.34454488 29.93508639 8.55894801 28.47979695 6.42030334 25.78401184 C5.86471741 25.09114075 5.30913147 24.39826965 4.73670959 23.68440247 C4.16823303 22.96059387 3.59975647 22.23678528 3.01405334 21.49104309 C2.44557678 20.77883606 1.87710022 20.06662903 1.29139709 19.33283997 C0.18837793 17.94958739 -0.9099552 16.56258208 -2.0030365 15.17146301 C-3.26117296 13.58667505 -4.56074874 12.03492424 -5.86875916 10.49104309 C-7.99869656 7.60996835 -7.95261383 5.80354688 -7.48594666 2.30354309 C-4.97772565 -0.20467791 -3.42440723 0.04724542 0 0 Z " fill="#FEB39A" transform="translate(243.48594665527344,282.6964569091797)"/>
<path d="M0 0 C4.1146875 -0.0928125 4.1146875 -0.0928125 8.3125 -0.1875 C9.60281128 -0.22846802 9.60281128 -0.22846802 10.91918945 -0.27026367 C11.60198975 -0.27775635 12.28479004 -0.28524902 12.98828125 -0.29296875 C14.03302612 -0.31653442 14.03302612 -0.31653442 15.09887695 -0.34057617 C17.58848963 0.10542481 18.47530745 1.02028202 20 3 C20.0256319 7.94695578 16.81552016 11.19079183 13.8125 14.8125 C12.80907011 16.05011222 11.80646067 17.28839013 10.8046875 18.52734375 C10.3209668 19.12144043 9.83724609 19.71553711 9.33886719 20.32763672 C7.63254358 22.4589855 6.03131854 24.65871999 4.4375 26.875 C3.2309375 28.421875 3.2309375 28.421875 2 30 C1.34 30 0.68 30 0 30 C0 20.1 0 10.2 0 0 Z " fill="#F5886F" transform="translate(256,283)"/>
<path d="M0 0 C2 2 2 2 2.25 5 C2 8 2 8 0 10 C-3.5 10.3125 -3.5 10.3125 -7 10 C-9 7 -9 7 -8.75 3.875 C-8.37875 2.451875 -8.37875 2.451875 -8 1 C-5.23749964 -0.38125018 -3.05268901 -0.19079306 0 0 Z " fill="#F6F6F6" transform="translate(324,239)"/>
<path d="M0 0 C3.5625 0.1875 3.5625 0.1875 5.5625 2.1875 C5.8125 5.1875 5.8125 5.1875 5.5625 8.1875 C3.5625 10.1875 3.5625 10.1875 0.625 10.5 C-2.4375 10.1875 -2.4375 10.1875 -4.375 9.0625 C-5.97693488 6.23555609 -5.23334319 4.23823223 -4.4375 1.1875 C-3.4375 0.1875 -3.4375 0.1875 0 0 Z " fill="#F6F6F7" transform="translate(200.4375,237.8125)"/>
</svg>
